<svg width="36" height="40" viewBox="0 0 36 40" fill="none" xmlns="http://www.w3.org/2000/svg">
<path d="M1.32135 36.758V3.24203C1.32135 1.92609 2.38815 0.859375 3.70401 0.859375H34.6785V34.3753H3.70401C2.38815 34.3753 1.32135 35.4421 1.32135 36.758ZM1.32135 36.758C1.32135 38.0739 2.38807 39.1406 3.70401 39.1406H34.6785M32.2959 34.3753V39.1406M6.08666 0.859375V34.3753" stroke="#33836E" stroke-width="1.71875" stroke-miterlimit="10" stroke-linecap="round" stroke-linejoin="round"/>
<path d="M20.3826 10.4694V27.148M10.852 12.8521H29.9132M15.6173 27.148H25.1479M13.2346 12.8521L10.852 17.6174C10.852 18.9333 11.9187 20.0001 13.2346 20.0001C14.5506 20.0001 15.6173 18.9333 15.6173 17.6174L13.2346 12.8521ZM27.5306 12.8521L29.9132 17.6174C29.9132 18.9333 28.8465 20.0001 27.5306 20.0001C26.2146 20.0001 25.1479 18.9333 25.1479 17.6174L27.5306 12.8521Z" stroke="#33836E" stroke-width="1.71875" stroke-miterlimit="10" stroke-linecap="round" stroke-linejoin="round"/>
</svg>
