<svg width="19" height="17" viewBox="0 0 19 17" fill="none" xmlns="http://www.w3.org/2000/svg">
<path fill-rule="evenodd" clip-rule="evenodd" d="M1.27053 7.43446C6.23172 5.27295 9.53996 3.84796 11.1952 3.15947C15.9214 1.19369 16.9035 0.852216 17.5436 0.840941C17.6843 0.838461 17.9991 0.87335 18.203 1.0388C18.3752 1.1785 18.4226 1.36722 18.4452 1.49968C18.4679 1.63213 18.4961 1.93387 18.4737 2.16963C18.2176 4.86063 17.1094 11.391 16.5456 14.4049C16.307 15.6802 15.8373 16.1079 15.3825 16.1497C14.3943 16.2406 13.6438 15.4966 12.6866 14.8691C11.1888 13.8873 10.3426 13.2761 8.88868 12.318C7.20843 11.2107 8.29766 10.6021 9.25523 9.60758C9.50583 9.3473 13.8602 5.38663 13.9445 5.02733C13.9551 4.9824 13.9648 4.8149 13.8653 4.72645C13.7658 4.63801 13.619 4.66825 13.513 4.69231C13.3628 4.7264 10.9699 6.30796 6.33455 9.43698C5.65536 9.90336 5.04017 10.1306 4.48898 10.1187C3.88133 10.1056 2.71248 9.77512 1.84355 9.49266C0.777774 9.14622 -0.0692822 8.96306 0.00447741 8.3747C0.042896 8.06824 0.464915 7.75483 1.27053 7.43446Z" fill="#33836E"/>
</svg>
