<svg width="16" height="18" viewBox="0 0 16 18" fill="none" xmlns="http://www.w3.org/2000/svg">
<path fill-rule="evenodd" clip-rule="evenodd" d="M8 9.75C4.54822 9.75 1.75 12.5482 1.75 16V17C1.75 17.4142 1.41421 17.75 1 17.75C0.585786 17.75 0.25 17.4142 0.25 17V16C0.25 11.7198 3.71979 8.25 8 8.25C12.2802 8.25 15.75 11.7198 15.75 16V17C15.75 17.4142 15.4142 17.75 15 17.75C14.5858 17.75 14.25 17.4142 14.25 17V16C14.25 12.5482 11.4518 9.75 8 9.75Z" fill="#33836E"/>
<path fill-rule="evenodd" clip-rule="evenodd" d="M8 1.75C6.20507 1.75 4.75 3.20507 4.75 5C4.75 6.79493 6.20507 8.25 8 8.25C9.79493 8.25 11.25 6.79493 11.25 5C11.25 3.20507 9.79493 1.75 8 1.75ZM3.25 5C3.25 2.37665 5.37665 0.25 8 0.25C10.6234 0.25 12.75 2.37665 12.75 5C12.75 7.62335 10.6234 9.75 8 9.75C5.37665 9.75 3.25 7.62335 3.25 5Z" fill="#33836E"/>
</svg>
