<svg width="32" height="32" viewBox="0 0 32 32" fill="none" xmlns="http://www.w3.org/2000/svg">
<path fill-rule="evenodd" clip-rule="evenodd" d="M8.97432 13.7867C7.29118 15.0783 6.33325 16.7927 6.33325 18.6109C6.33325 20.6968 7.59979 22.6567 9.77147 23.9808C10.1607 24.2181 10.3402 24.6885 10.2079 25.1247L9.63937 26.9998H11.6552L13.4613 25.6445C13.6344 25.5145 13.845 25.4443 14.0615 25.4443H17.3108C17.5272 25.4443 17.7379 25.5145 17.911 25.6445L19.7171 26.9998H21.7329L21.1644 25.1247C21.0321 24.6885 21.2116 24.2181 21.6008 23.9808C22.8905 23.1944 23.8672 22.1757 24.442 21.0463C24.6925 20.5541 25.2946 20.3581 25.7868 20.6086C26.279 20.8591 26.475 21.4612 26.2245 21.9534C25.5668 23.2457 24.5492 24.3677 23.2949 25.2585L23.7251 26.6776C24.0756 27.8336 23.2105 28.9998 22.0025 28.9998H19.6504C19.2607 28.9998 18.8816 28.8734 18.57 28.6395L16.9773 27.4443H14.395L12.8023 28.6395C12.4907 28.8734 12.1115 28.9998 11.7219 28.9998H9.36974C8.16178 28.9998 7.29668 27.8336 7.64717 26.6776L8.07747 25.2584C5.83249 23.6628 4.33325 21.3134 4.33325 18.6109C4.33325 16.0416 5.6929 13.7838 7.75676 12.2C9.81961 10.6171 12.6264 9.6665 15.6861 9.6665C16.9098 9.6665 18.3705 10.0482 19.3642 10.3078C19.4404 10.3277 19.5138 10.3469 19.5842 10.3652C20.1188 10.5038 20.4398 11.0495 20.3013 11.5841C20.1627 12.1187 19.6169 12.4398 19.0823 12.3012C19.0298 12.2876 18.9768 12.2738 18.9234 12.2599C17.8646 11.9848 16.6398 11.6665 15.6861 11.6665C13.0281 11.6665 10.6585 12.4943 8.97432 13.7867Z" fill="white"/>
<path fill-rule="evenodd" clip-rule="evenodd" d="M25.9273 8.52908C26.1892 8.72247 26.3405 9.03121 26.333 9.35665L26.2368 13.5121L28.3858 14.411C28.7578 14.5665 28.9999 14.9303 28.9999 15.3335V20.0002C28.9999 20.3734 28.792 20.7157 28.4608 20.8877L25.8929 22.221C25.4027 22.4755 24.7991 22.2845 24.5446 21.7943C24.2901 21.3042 24.4811 20.7005 24.9713 20.446L26.9999 19.3926V15.9992L24.8354 15.0938C24.4557 14.9349 24.212 14.5596 24.2216 14.1481L24.3006 10.7318L19.6495 12.2822C19.1256 12.4568 18.5592 12.1737 18.3846 11.6497C18.2099 11.1258 18.4931 10.5595 19.0171 10.3848L25.0171 8.38482C25.3259 8.28188 25.6655 8.3357 25.9273 8.52908Z" fill="white"/>
<path d="M20.6666 17.3333C20.2984 17.3333 19.9999 17.0349 19.9999 16.6667C19.9999 16.2985 20.2984 16 20.6666 16C21.0348 16 21.3333 16.2985 21.3333 16.6667C21.3333 17.0349 21.0348 17.3333 20.6666 17.3333Z" fill="white"/>
<path fill-rule="evenodd" clip-rule="evenodd" d="M20.6666 17C20.4825 17 20.3333 16.8508 20.3333 16.6667C20.3333 16.4826 20.4825 16.3333 20.6666 16.3333C20.8507 16.3333 20.9999 16.4826 20.9999 16.6667C20.9999 16.8508 20.8507 17 20.6666 17ZM22.3333 16.6667C22.3333 15.7462 21.5871 15 20.6666 15C19.7461 15 18.9999 15.7462 18.9999 16.6667C18.9999 17.5871 19.7461 18.3333 20.6666 18.3333C21.5871 18.3333 22.3333 17.5871 22.3333 16.6667Z" fill="white"/>
<path fill-rule="evenodd" clip-rule="evenodd" d="M3.66674 13.3293C3.66446 12.7789 3.21762 12.3335 2.66675 12.3335C2.11446 12.3335 1.66675 12.7812 1.66675 13.3335H2.66675C1.66675 13.3335 1.66675 13.3339 1.66675 13.3343L1.66675 13.3353L1.66675 13.3374L1.66678 13.3424L1.66692 13.3561L1.66778 13.3972C1.6687 13.4305 1.67042 13.4755 1.67366 13.5309C1.68013 13.6415 1.69269 13.7945 1.71719 13.9782C1.76579 14.3427 1.86335 14.8436 2.06233 15.3808C2.46047 16.4558 3.30822 17.77 5.04607 18.2913C5.57506 18.45 6.13254 18.1498 6.29124 17.6208C6.44994 17.0919 6.14976 16.5344 5.62076 16.3757C4.69194 16.097 4.20636 15.4112 3.93783 14.6862C3.80348 14.3234 3.73438 13.9743 3.69964 13.7138C3.68247 13.585 3.6742 13.4817 3.67025 13.4142C3.66828 13.3805 3.6674 13.356 3.66702 13.3421L3.66674 13.3293C3.66674 13.3293 3.66674 13.3293 3.66674 13.3293" fill="white"/>
<path fill-rule="evenodd" clip-rule="evenodd" d="M12.6667 5C10.6588 5 9 6.66291 9 8.75296C9 9.75047 9.37879 10.6527 9.99507 11.3234L8.52238 12.6766C7.57717 11.648 7 10.2665 7 8.75296C7 5.59304 9.51986 3 12.6667 3C15.8135 3 18.3333 5.59304 18.3333 8.75296C18.3333 9.4214 18.2206 10.0654 18.0125 10.6651L16.1231 10.0094C16.2589 9.61808 16.3333 9.19557 16.3333 8.75296C16.3333 6.66291 14.6745 5 12.6667 5Z" fill="white"/>
</svg>
