<svg width="22" height="26" viewBox="0 0 22 26" fill="none" xmlns="http://www.w3.org/2000/svg">
<path fill-rule="evenodd" clip-rule="evenodd" d="M0.775637 16.1205C0.946314 16.4557 1.29063 16.6667 1.66675 16.6667H8.66675V25.0001C8.66675 25.4332 8.9456 25.8171 9.35751 25.9511C9.76942 26.085 10.2207 25.9385 10.4755 25.5882L21.1422 10.9216C21.3634 10.6174 21.3952 10.2148 21.2245 9.87962C21.0539 9.54445 20.7095 9.3334 20.3334 9.3334L13.3334 9.3334V1.00007C13.3334 0.56693 13.0546 0.183031 12.6427 0.0490854C12.2308 -0.08486 11.7794 0.0616018 11.5247 0.411896L0.858016 15.0786C0.63679 15.3827 0.60496 15.7853 0.775637 16.1205ZM11.3334 4.07525V10.3334C11.3334 10.8857 11.7811 11.3334 12.3334 11.3334L18.3696 11.3334L10.6668 21.9249V15.6667C10.6668 15.1145 10.219 14.6667 9.66675 14.6667H3.63052L11.3334 4.07525Z" fill="white"/>
</svg>
