<svg width="24" height="24" viewBox="0 0 24 24" fill="none" xmlns="http://www.w3.org/2000/svg">
<path fill-rule="evenodd" clip-rule="evenodd" d="M9 12.75C5.54822 12.75 2.75 15.5482 2.75 19V20C2.75 20.4142 2.41421 20.75 2 20.75C1.58579 20.75 1.25 20.4142 1.25 20V19C1.25 14.7198 4.71979 11.25 9 11.25V12.75Z" fill="#33836E"/>
<path fill-rule="evenodd" clip-rule="evenodd" d="M15.2492 11.8085C16.1885 10.7771 17.8114 10.7771 18.7507 11.8085C18.9247 11.9995 19.1748 12.1031 19.4329 12.0911C20.8264 12.0259 21.9739 13.1735 21.9088 14.567C21.8968 14.8251 22.0003 15.0752 22.1914 15.2492C23.2228 16.1885 23.2228 17.8114 22.1914 18.7507C22.0003 18.9247 21.8968 19.1748 21.9088 19.4329C21.9739 20.8264 20.8264 21.9739 19.4329 21.9088C19.1748 21.8968 18.9247 22.0003 18.7507 22.1914C17.8114 23.2228 16.1885 23.2228 15.2492 22.1914C15.0752 22.0003 14.8251 21.8968 14.567 21.9088C13.1735 21.9739 12.0259 20.8264 12.0911 19.4329C12.1031 19.1748 11.9995 18.9247 11.8085 18.7507C10.7771 17.8114 10.7771 16.1885 11.8085 15.2492C11.9995 15.0752 12.1031 14.8251 12.0911 14.567C12.0259 13.1735 13.1735 12.0259 14.567 12.0911C14.8251 12.1031 15.0752 11.9995 15.2492 11.8085ZM17.6417 12.8184C17.2974 12.4404 16.7025 12.4404 16.3582 12.8184C15.8835 13.3397 15.2012 13.6223 14.4969 13.5894C13.9862 13.5655 13.5655 13.9862 13.5894 14.4969C13.6223 15.2012 13.3397 15.8835 12.8184 16.3582C12.4404 16.7025 12.4404 17.2974 12.8184 17.6417C13.3397 18.1164 13.6223 18.7987 13.5894 19.5029C13.5655 20.0137 13.9862 20.4343 14.4969 20.4105C15.2012 20.3775 15.8835 20.6602 16.3582 21.1814C16.7025 21.5595 17.2974 21.5595 17.6417 21.1814C18.1164 20.6602 18.7987 20.3775 19.5029 20.4105C20.0137 20.4343 20.4343 20.0137 20.4105 19.5029C20.3775 18.7987 20.6602 18.1164 21.1814 17.6417C21.5595 17.2974 21.5595 16.7025 21.1814 16.3582C20.6602 15.8835 20.3775 15.2012 20.4105 14.4969C20.4343 13.9862 20.0137 13.5655 19.5029 13.5894C18.7987 13.6223 18.1164 13.3397 17.6417 12.8184Z" fill="#33836E"/>
<path fill-rule="evenodd" clip-rule="evenodd" d="M14.8333 16.4697C15.1262 16.1768 15.6011 16.1768 15.894 16.4697L16.4545 17.0302L18.106 15.3788C18.3989 15.0859 18.8738 15.0859 19.1667 15.3788C19.4596 15.6717 19.4596 16.1465 19.1667 16.4394L16.9849 18.6212C16.692 18.9141 16.2171 18.9141 15.9242 18.6212L14.8333 17.5303C14.5404 17.2374 14.5404 16.7626 14.8333 16.4697Z" fill="#33836E"/>
<path fill-rule="evenodd" clip-rule="evenodd" d="M9 4.75C7.20507 4.75 5.75 6.20507 5.75 8C5.75 9.79493 7.20507 11.25 9 11.25C10.7949 11.25 12.25 9.79493 12.25 8C12.25 6.20507 10.7949 4.75 9 4.75ZM4.25 8C4.25 5.37665 6.37665 3.25 9 3.25C11.6234 3.25 13.75 5.37665 13.75 8C13.75 10.6234 11.6234 12.75 9 12.75C6.37665 12.75 4.25 10.6234 4.25 8Z" fill="#33836E"/>
</svg>
