<svg width="25" height="24" viewBox="0 0 25 24" fill="none" xmlns="http://www.w3.org/2000/svg">
<path fill-rule="evenodd" clip-rule="evenodd" d="M8.13653 11.4697C8.42942 11.1768 8.9043 11.1768 9.19719 11.4697L11.6669 13.9393L16.1365 9.46967C16.4294 9.17678 16.9043 9.17678 17.1972 9.46967C17.4901 9.76256 17.4901 10.2374 17.1972 10.5303L12.1972 15.5303C11.9043 15.8232 11.4294 15.8232 11.1365 15.5303L8.13653 12.5303C7.84364 12.2374 7.84364 11.7626 8.13653 11.4697Z" fill="#33836E"/>
<path fill-rule="evenodd" clip-rule="evenodd" d="M12.6667 2.75C7.55811 2.75 3.41675 6.89137 3.41675 12C3.41675 13.6861 3.86718 15.2647 4.65377 16.6245C4.74341 16.7794 4.77466 16.9613 4.7419 17.1373L4.10417 20.5626L7.52947 19.9248C7.70545 19.8921 7.88735 19.9233 8.04229 20.013C9.40208 20.7996 10.9807 21.25 12.6667 21.25C17.7754 21.25 21.9167 17.1086 21.9167 12C21.9167 6.89137 17.7754 2.75 12.6667 2.75ZM1.91675 12C1.91675 6.06294 6.72969 1.25 12.6667 1.25C18.6038 1.25 23.4167 6.06294 23.4167 12C23.4167 17.9371 18.6038 22.75 12.6667 22.75C10.8104 22.75 9.06211 22.2789 7.5369 21.4492L3.30403 22.2373C3.06097 22.2826 2.81123 22.2051 2.63642 22.0303C2.4616 21.8555 2.38417 21.6058 2.42942 21.3627L3.21751 17.1298C2.38787 15.6046 1.91675 13.8563 1.91675 12Z" fill="#33836E"/>
</svg>
