<svg width="32" height="32" viewBox="0 0 32 32" fill="none" xmlns="http://www.w3.org/2000/svg">
<path fill-rule="evenodd" clip-rule="evenodd" d="M17.8399 5.06702C17.3284 4.42768 16.3362 4.49442 15.915 5.1965L12.301 11.2197C11.6384 12.3241 10.4449 12.9999 9.15691 12.9999H5.66675V25.6665H21.9633C22.7149 25.6665 23.3735 25.1635 23.5712 24.4384L26.1167 15.105C26.4058 14.0448 25.6077 12.9999 24.5087 12.9999H18.4086C17.2029 12.9999 16.3381 11.8375 16.6846 10.6826L18.0478 6.13858C18.1587 5.76893 18.0809 5.36839 17.8399 5.06702ZM14.2 4.16751C15.3383 2.2703 18.0195 2.08996 19.4016 3.81763C20.0531 4.63199 20.2631 5.71437 19.9634 6.71328L18.6774 10.9999H24.5087C26.9264 10.9999 28.6824 13.2988 28.0462 15.6313L25.5008 24.9646C25.0657 26.5598 23.6168 27.6665 21.9633 27.6665H5.46675C4.47264 27.6665 3.66675 26.8606 3.66675 25.8665V12.7999C3.66675 11.8057 4.47264 10.9999 5.46675 10.9999H9.15691C9.74235 10.9999 10.2849 10.6927 10.5861 10.1907L14.2 4.16751Z" fill="white"/>
<path fill-rule="evenodd" clip-rule="evenodd" d="M9.33325 27.6665C8.78097 27.6665 8.33325 27.2188 8.33325 26.6665L8.33325 11.9998C8.33325 11.4476 8.78097 10.9998 9.33325 10.9998C9.88554 10.9998 10.3333 11.4476 10.3333 11.9998V26.6665C10.3333 27.2188 9.88554 27.6665 9.33325 27.6665Z" fill="white"/>
</svg>
