<svg width="32" height="32" viewBox="0 0 32 32" fill="none" xmlns="http://www.w3.org/2000/svg">
<path fill-rule="evenodd" clip-rule="evenodd" d="M10.922 6.74919C11.9074 5.38058 13.541 4.3335 16.0002 4.3335C18.4595 4.3335 20.093 5.38058 21.0784 6.74919C22.0271 8.06681 22.3336 9.61792 22.3336 10.6668V15.0002H23.2002C24.1944 15.0002 25.0002 15.806 25.0002 16.8002V25.8668C25.0002 26.8609 24.1944 27.6668 23.2002 27.6668H8.80024C7.80613 27.6668 7.00024 26.8609 7.00024 25.8668V16.8002C7.00024 15.806 7.80613 15.0002 8.80024 15.0002H9.66691V10.6668C9.66691 9.61792 9.97336 8.06681 10.922 6.74919ZM11.6669 15.0002H20.3336V10.6668C20.3336 9.93796 20.1067 8.8224 19.4554 7.9178C18.8408 7.06419 17.8077 6.3335 16.0002 6.3335C14.1928 6.3335 13.1597 7.06419 12.5451 7.9178C11.8938 8.8224 11.6669 9.93796 11.6669 10.6668V15.0002ZM9.00024 17.0002V25.6668H23.0002V17.0002H9.00024Z" fill="white"/>
</svg>
