<svg width="77" height="31" viewBox="0 0 57 21" fill="none" xmlns="http://www.w3.org/2000/svg">
<path fill-rule="evenodd" clip-rule="evenodd" d="M10.7427 2.18704C10.1379 0.881917 9.291 0.229419 8.20223 0.159514C6.65365 0.159452 5.10519 0.159483 3.70183 0.159544C2.7099 1.32476 1.47593 2.86286 0 4.77382C1.96976 4.75923 4.10534 4.62625 6.28696 4.86172C8.03744 5.05068 9.48306 5.64332 10.525 6.80132C10.6701 4.96028 10.6943 3.44542 10.7427 2.18704Z" fill="#115B82"/>
<path fill-rule="evenodd" clip-rule="evenodd" d="M10.7427 2.18704C10.1379 0.881917 9.291 0.229419 8.20223 0.159514C6.65365 0.159452 5.10519 0.159483 3.70183 0.159544C2.7099 1.32476 1.47593 2.86286 0 4.77382C1.96976 4.75923 4.10534 4.62625 6.28696 4.86172C8.03744 5.05068 9.48306 5.64332 10.525 6.80132C10.6701 4.96028 10.6943 3.44542 10.7427 2.18704Z" fill="#115B82"/>
<path fill-rule="evenodd" clip-rule="evenodd" d="M4.49316 5.66545V20.2688H10.5059V8.15569C8.92936 6.27594 6.87641 5.76354 4.49316 5.66545Z" fill="#115B82"/>
<path fill-rule="evenodd" clip-rule="evenodd" d="M4.49316 5.66545V20.2688H10.5059V8.15569C8.92936 6.27594 6.87641 5.76354 4.49316 5.66545Z" fill="#115B82"/>
<path fill-rule="evenodd" clip-rule="evenodd" d="M24.6565 20.0713C21.9488 20.297 18.902 20.6254 16.3735 19.3969C14.945 18.703 13.8103 17.7215 12.9826 16.4527C11.2385 13.7787 10.9462 7.6856 12.7841 4.36938C13.263 3.50514 13.9397 2.84485 14.7371 2.26862C16.7229 0.832954 19.394 0.0766434 22.7501 0C19.1864 2.80442 17.671 4.87175 17.4066 8.01C17.2605 9.74514 17.145 13.0457 18.6203 14.2275C18.9977 14.5297 19.4347 14.7864 19.9292 14.9589C22.4122 15.8252 26.3962 15.359 28.6891 15.1262C27.1984 17.5986 25.6586 19.2956 24.6565 20.0713Z" fill="#115B82"/>
<path fill-rule="evenodd" clip-rule="evenodd" d="M24.6565 20.0713C21.9488 20.297 18.902 20.6254 16.3735 19.3969C14.945 18.703 13.8103 17.7215 12.9826 16.4527C11.2385 13.7787 10.9462 7.6856 12.7841 4.36938C13.263 3.50514 13.9397 2.84485 14.7371 2.26862C16.7229 0.832954 19.394 0.0766434 22.7501 0C19.1864 2.80442 17.671 4.87175 17.4066 8.01C17.2605 9.74514 17.145 13.0457 18.6203 14.2275C18.9977 14.5297 19.4347 14.7864 19.9292 14.9589C22.4122 15.8252 26.3962 15.359 28.6891 15.1262C27.1984 17.5986 25.6586 19.2956 24.6565 20.0713Z" fill="#115B82"/>
<path fill-rule="evenodd" clip-rule="evenodd" d="M43.5901 0.32444C46.2978 0.0986958 49.3445 -0.229692 51.8731 0.998785C53.3017 1.69276 54.4362 2.67417 55.2639 3.94299C57.008 6.61699 57.3005 12.7101 55.4624 16.0263C54.9834 16.8906 54.3068 17.5509 53.5096 18.1271C51.5238 19.5628 48.8525 20.3191 45.4964 20.3957C49.0603 17.5913 50.5755 15.524 50.8401 12.3857C50.9862 10.6506 51.1016 7.35 49.6262 6.16825C49.2489 5.866 48.8118 5.60935 48.3173 5.4368C45.8343 4.57055 41.8504 5.03677 39.5575 5.26948C41.0481 2.79709 42.5881 1.10011 43.5901 0.32444Z" fill="#115B82"/>
<path fill-rule="evenodd" clip-rule="evenodd" d="M43.5901 0.32444C46.2978 0.0986958 49.3445 -0.229692 51.8731 0.998785C53.3017 1.69276 54.4362 2.67417 55.2639 3.94299C57.008 6.61699 57.3005 12.7101 55.4624 16.0263C54.9834 16.8906 54.3068 17.5509 53.5096 18.1271C51.5238 19.5628 48.8525 20.3191 45.4964 20.3957C49.0603 17.5913 50.5755 15.524 50.8401 12.3857C50.9862 10.6506 51.1016 7.35 49.6262 6.16825C49.2489 5.866 48.8118 5.60935 48.3173 5.4368C45.8343 4.57055 41.8504 5.03677 39.5575 5.26948C41.0481 2.79709 42.5881 1.10011 43.5901 0.32444Z" fill="#115B82"/>
<path fill-rule="evenodd" clip-rule="evenodd" d="M25.9028 20.2168C28.7503 17.859 30.5349 15.2491 30.9573 11.7874C31.082 10.7657 31.0653 9.73209 31.1643 8.70711C31.3575 6.70569 31.8526 4.68935 33.3731 3.16446C35.2254 1.30652 37.9901 0.372643 42.1068 0.0727167C38.7108 3.09249 37.4662 5.55809 36.9714 9.38803C36.8513 10.3188 36.8287 11.2623 36.6748 12.1877C35.8086 17.3917 31.4981 20.4427 25.9028 20.2168Z" fill="#115B82"/>
<path fill-rule="evenodd" clip-rule="evenodd" d="M25.9028 20.2168C28.7503 17.859 30.5349 15.2491 30.9573 11.7874C31.082 10.7657 31.0653 9.73209 31.1643 8.70711C31.3575 6.70569 31.8526 4.68935 33.3731 3.16446C35.2254 1.30652 37.9901 0.372643 42.1068 0.0727167C38.7108 3.09249 37.4662 5.55809 36.9714 9.38803C36.8513 10.3188 36.8287 11.2623 36.6748 12.1877C35.8086 17.3917 31.4981 20.4427 25.9028 20.2168Z" fill="#115B82"/>
<path fill-rule="evenodd" clip-rule="evenodd" d="M30.1013 6.63905C29.2011 5.91938 28.4098 5.56886 27.5516 5.35428C25.0995 4.74108 22.2199 5.09757 19.5768 5.17871C21.0491 2.60062 22.576 0.97804 24.1029 0.148717C25.3767 0.104749 26.5762 0.107673 27.7139 0.169701C29.033 0.241606 30.1039 0.390277 31.3272 0.891428C32.1247 1.21828 32.6251 1.52959 32.828 1.82539C31.3191 3.24966 30.4104 4.87225 30.1013 6.63905Z" fill="#115B82"/>
<path fill-rule="evenodd" clip-rule="evenodd" d="M30.1013 6.63905C29.2011 5.91938 28.4098 5.56886 27.5516 5.35428C25.0995 4.74108 22.2199 5.09757 19.5768 5.17871C21.0491 2.60062 22.576 0.97804 24.1029 0.148717C25.3767 0.104749 26.5762 0.107673 27.7139 0.169701C29.033 0.241606 30.1039 0.390277 31.3272 0.891428C32.1247 1.21828 32.6251 1.52959 32.828 1.82539C31.3191 3.24966 30.4104 4.87225 30.1013 6.63905Z" fill="#115B82"/>
<path fill-rule="evenodd" clip-rule="evenodd" d="M37.4715 13.7566C38.3959 14.4763 39.2084 14.8268 40.0895 15.0414C42.6073 15.6546 45.564 15.2981 48.2779 15.217C46.7661 17.7951 45.1983 19.4177 43.6307 20.247C42.3228 20.291 41.0909 20.288 39.9229 20.226C38.5684 20.1541 37.469 20.0054 36.2129 19.5042C35.3939 19.1774 34.8802 18.8661 34.672 18.5703C36.221 17.1461 37.1541 15.5234 37.4715 13.7566Z" fill="#115B82"/>
<path fill-rule="evenodd" clip-rule="evenodd" d="M37.4715 13.7566C38.3959 14.4763 39.2084 14.8268 40.0895 15.0414C42.6073 15.6546 45.564 15.2981 48.2779 15.217C46.7661 17.7951 45.1983 19.4177 43.6307 20.247C42.3228 20.291 41.0909 20.288 39.9229 20.226C38.5684 20.1541 37.469 20.0054 36.2129 19.5042C35.3939 19.1774 34.8802 18.8661 34.672 18.5703C36.221 17.1461 37.1541 15.5234 37.4715 13.7566Z" fill="#115B82"/>
</svg>
