<svg width="12" height="20" viewBox="0 0 12 20" fill="none" xmlns="http://www.w3.org/2000/svg">
<path d="M6.16033 0.400391C3.32975 0.400391 1.0271 2.62319 1.0271 5.3558C1.0271 8.08819 3.32975 10.31 6.16033 10.31C8.99081 10.31 11.2923 8.08819 11.2923 5.3558C11.2923 2.62319 8.99083 0.400391 6.16033 0.400391ZM6.16033 3.3038C7.33183 3.3038 8.28448 4.22476 8.28448 5.3558C8.28448 6.48635 7.33185 7.40661 6.16033 7.40661C4.98859 7.40661 4.03495 6.48637 4.03495 5.3558C4.03495 4.22476 4.98859 3.3038 6.16033 3.3038ZM1.92822 10.4786C1.42036 10.471 0.920943 10.7127 0.631235 11.1584C0.1885 11.8374 0.400591 12.7335 1.10231 13.1606C2.0305 13.7228 3.03769 14.1217 4.0822 14.3516L1.21355 17.1224C0.626304 17.6896 0.626801 18.6083 1.21417 19.1756C1.50857 19.4587 1.89254 19.6004 2.27749 19.6004C2.66204 19.6004 3.0473 19.4585 3.34081 19.175L6.15911 16.4528L8.97991 19.175C9.56666 19.7421 10.5181 19.7421 11.1059 19.175C11.6934 18.6081 11.6934 17.6884 11.1059 17.1224L8.23601 14.3522C9.28081 14.1223 10.2883 13.7232 11.2159 13.1606C11.919 12.7335 12.1314 11.8365 11.6888 11.1584C11.2457 10.4792 10.318 10.2746 9.61439 10.7024C7.51293 11.9786 4.80521 11.9778 2.70441 10.7024C2.46259 10.5553 2.19424 10.4826 1.92822 10.4786V10.4786Z" fill="#33836E"/>
</svg>
