<svg width="24" height="24" viewBox="0 0 24 24" fill="none" xmlns="http://www.w3.org/2000/svg">
<path fill-rule="evenodd" clip-rule="evenodd" d="M7.96978 10.9697C8.26268 10.6768 8.73755 10.6768 9.03044 10.9697L11.5001 13.4393L15.9698 8.96967C16.2627 8.67678 16.7376 8.67678 17.0304 8.96967C17.3233 9.26256 17.3233 9.73744 17.0304 10.0303L12.0304 15.0303C11.7376 15.3232 11.2627 15.3232 10.9698 15.0303L7.96978 12.0303C7.67689 11.7374 7.67689 11.2626 7.96978 10.9697Z" fill="#33836E"/>
<path fill-rule="evenodd" clip-rule="evenodd" d="M11.4035 1.36425C11.7964 1.27694 12.2037 1.27694 12.5966 1.36425L20.2587 3.06695C21.1474 3.26445 21.742 4.10933 21.6121 5.01857L19.7425 18.106C19.6968 18.4259 19.5314 19.5137 18.4051 20.4999C17.2917 21.4747 15.3559 22.25 12 22.25C8.64416 22.25 6.70833 21.4747 5.59496 20.4999C4.46862 19.5137 4.30324 18.4259 4.25755 18.106L2.38791 5.01857C2.25802 4.10933 2.85258 3.26445 3.74129 3.06695L11.4035 1.36425ZM12.2712 2.82853C12.0926 2.78885 11.9074 2.78885 11.7288 2.82853L4.06669 4.53124C3.93521 4.56045 3.85493 4.68111 3.87283 4.80644L5.7436 17.9019C5.77009 18.0883 5.86275 18.7406 6.58309 19.3713C7.32705 20.0227 8.85586 20.75 12 20.75C15.1442 20.75 16.673 20.0227 17.4169 19.3713C18.1373 18.7406 18.2299 18.0883 18.2564 17.9019L20.1272 4.80644C20.1451 4.68111 20.0648 4.56045 19.9333 4.53124L12.2712 2.82853Z" fill="#33836E"/>
</svg>
