<svg width="20" height="14" viewBox="0 0 20 14" fill="none" xmlns="http://www.w3.org/2000/svg">
<path d="M19.2044 2.38372C18.983 1.56132 18.3346 0.91289 17.5122 0.691474C16.0097 0.280273 9.99986 0.280273 9.99986 0.280273C9.99986 0.280273 3.99 0.280273 2.48754 0.675659C1.68095 0.897075 1.0167 1.56132 0.795288 2.38372C0.399902 3.88619 0.399902 7.00183 0.399902 7.00183C0.399902 7.00183 0.399902 10.1333 0.795288 11.6199C1.0167 12.4423 1.66514 13.0908 2.48754 13.3122C4.00582 13.7234 9.99986 13.7234 9.99986 13.7234C9.99986 13.7234 16.0097 13.7234 17.5122 13.328C18.3346 13.1066 18.983 12.4581 19.2044 11.6357C19.5998 10.1333 19.5998 7.01764 19.5998 7.01764C19.5998 7.01764 19.6156 3.88619 19.2044 2.38372Z" fill="#33836E"/>
<path d="M8.08643 9.87986L13.0841 7.00145L8.08643 4.12305V9.87986Z" fill="white"/>
</svg>
